<svg width="128" height="128" viewBox="0 0 128 128" fill="none" xmlns="http://www.w3.org/2000/svg">
<rect width="128" height="128" rx="64" fill="white"/>
<path fill-rule="evenodd" clip-rule="evenodd" d="M59.4781 51.1663C51.6979 53.7849 44.1902 57.1462 37.0594 61.2029C33.1832 63.2614 29.7582 66.0691 26.985 69.4616C25.9175 70.7341 25.1998 72.2607 24.9022 73.892C24.6046 75.5234 24.7373 77.2035 25.2872 78.7685C26.2648 81.2998 27.8985 83.5282 30.022 85.2266C31.4015 86.4455 32.9187 87.5005 34.5431 88.3702V74.0903H37.1395L37.2082 72.5954H39.4477V61.4137H43.7991V73.4332L47.294 72.5291V63.6741C53.0341 59.1801 60.0447 57.3071 66.8894 54.9252L64.131 49.5764C62.5095 50.1291 60.9852 50.625 59.4781 51.1663Z" fill="url(#paint0_linear_816_2717)"/>
<path fill-rule="evenodd" clip-rule="evenodd" d="M28.9463 44.4045C25.3927 46.917 22.5721 50.3231 20.7721 54.2753C18.9721 58.2274 18.2572 62.5841 18.7002 66.9012C21.6599 62.6464 25.3715 58.9625 29.654 56.0289C36.504 51.2277 44.0152 47.4377 51.9546 44.7768C53.4807 44.2393 55.169 43.6087 56.7657 43.0787C52.8048 40.9397 48.3663 39.8291 43.8604 39.8497C38.5388 39.822 33.3356 41.4124 28.9463 44.4084V44.4045Z" fill="url(#paint1_linear_816_2717)"/>
<path d="M64.4254 44.4141L64.5284 45.3752H69.9214C68.1873 45.964 66.4399 46.5149 64.7116 47.1322C54.39 50.5155 44.4426 54.9398 35.0245 60.3368C31.6461 62.2083 28.5891 64.6046 25.9688 67.435C23.9376 69.4749 22.7462 72.1975 22.6286 75.0677C22.5111 77.9378 23.4759 80.7479 25.3336 82.9456C29.5305 88.6838 35.7532 91.6829 36.337 92.3154C14.0173 79.6938 21.2836 69.7237 27.0886 63.6095C32.8936 57.4953 56.1938 47.7382 64.4273 44.4104L64.4254 44.4141Z" fill="#4F4F4F"/>
<path d="M27.0885 63.6134C21.2834 69.7276 14.0076 79.6976 36.3368 92.3211C35.4898 91.9953 34.6679 91.6081 33.8778 91.1625C30.2367 89.3081 26.8406 87.0113 23.7672 84.3247C22.3867 83.323 21.2325 82.0443 20.379 80.5711C19.5255 79.0978 18.9916 77.4628 18.8118 75.7715C18.6321 74.0802 18.8104 72.3702 19.3354 70.7517C19.8603 69.1332 20.7202 67.6422 21.8596 66.3751C24.9959 62.3565 28.8978 58.9936 33.3418 56.4792C41.4463 51.6799 49.9981 47.6724 58.8777 44.5128C59.0431 44.4512 59.2181 44.4192 59.3947 44.418C61.0467 44.418 62.6988 44.418 64.4329 44.418C56.2013 47.7438 32.8992 57.501 27.0942 63.6171L27.0885 63.6134Z" fill="#727272"/>
<path fill-rule="evenodd" clip-rule="evenodd" d="M103.347 29.8569C98.03 31.4601 92.7763 33.2759 87.4883 34.9854C86.1977 35.6138 84.8111 36.0234 83.3851 36.1972C81.3286 36.144 79.2777 35.8021 77.2136 35.7261C76.2701 35.6452 75.3916 35.214 74.7527 34.5181C74.1418 33.9471 73.4903 33.4208 72.8031 32.9435C72.3586 32.6377 71.8302 32.2996 71.214 32.8048C72.2594 33.8894 73.3545 34.8448 74.3903 35.8572C74.7343 36.22 75.1534 36.5042 75.6185 36.6901C76.0835 36.8761 76.5836 36.9593 77.0841 36.9342C77.7327 36.9171 79.1138 36.9342 79.1138 36.9342L79.1557 37.844C79.1557 37.844 75.884 39.4566 74.2338 40.1081C73.9968 40.2214 73.7322 40.2637 73.4714 40.23C73.2107 40.1963 72.965 40.088 72.7649 39.9181C71.193 38.719 69.6125 37.5325 68.0227 36.3586C67.3681 35.9116 66.6019 35.6541 65.8091 35.6149C65.0163 35.5757 64.228 35.7562 63.5321 36.1364C63.9136 36.7328 67.1565 41.791 67.1565 41.791V44.1197H67.4941C70.7361 44.2262 73.9811 44.0265 77.1852 43.5232C80.7863 42.7417 84.3188 41.6753 87.7495 40.3341C89.2013 39.6816 90.8433 39.5809 92.3645 40.0511C93.472 40.4191 94.6304 40.6114 95.7979 40.6209C96.7709 40.5868 97.2115 40.2258 97.2687 39.2268C97.3069 38.5354 97.2687 37.8402 97.2687 37.1773C101.038 35.9528 104.725 34.4937 108.31 32.8086C108.866 32.5313 109.495 32.3034 109.736 31.669C109.699 31.5128 109.628 31.3664 109.53 31.2395C109.431 31.1127 109.306 31.0085 109.163 30.9339C107.947 30.1138 106.521 29.6564 105.052 29.6157C104.47 29.6151 103.892 29.7002 103.335 29.8683L103.347 29.8569Z" fill="url(#paint2_linear_816_2717)"/>
<path fill-rule="evenodd" clip-rule="evenodd" d="M36.1421 82.2826V88.621C48.6106 87.9733 63.4312 89.8707 73.1126 97.8825C74.1551 90.5506 76.4113 83.4417 79.7894 76.8447C68.435 78.86 44.7284 83.0025 44.7284 83.0025C44.7284 83.0025 69.4115 76.5788 81.1379 73.7885C81.1379 73.7885 83.4388 67.3857 84.8066 64.4568C84.9052 64.2532 84.9604 64.0315 84.9689 63.8057C84.9773 63.5799 84.9386 63.3545 84.8555 63.1442C84.7723 62.9339 84.6464 62.7431 84.4857 62.5836C84.3249 62.424 84.1329 62.2993 83.9214 62.2172C83.0413 61.7797 82.0721 61.5484 81.0883 61.5411C80.7335 61.5221 80.3789 61.5144 80.026 61.5144C77.443 61.5858 74.8723 61.8973 72.3476 62.4451C66.2224 63.572 60.2081 65.2308 54.3736 67.4026C52.4089 68.1093 50.4965 68.9531 48.6506 69.9271V73.7505C44.0479 75.9071 39.8242 78.788 36.1421 82.2826ZM80.6287 57.6586C77.8325 57.6078 75.0366 57.7705 72.2654 58.145V56.2266C63.8371 57.4248 55.7526 60.3605 48.5284 64.8461C48.5284 64.8461 48.6525 67.0684 48.6525 68.0979C55.7359 65.2379 63.0008 62.8452 70.3999 60.9353C73.746 60.0238 77.1996 59.563 80.6687 59.5656C82.7023 59.6302 84.9743 59.7842 86.2429 61.8451C87.769 58.3426 84.9286 55.6453 80.6268 55.5864L80.6287 57.6586Z" fill="url(#paint3_linear_816_2717)"/>
<path d="M36.3349 80.8431V76.1363H38.4142V74.5842H41.0754V63.165C41.3778 62.9843 41.7265 62.8952 42.0788 62.9085V74.5842H44.4748C41.7526 76.645 39.0743 78.6832 36.3349 80.8523V80.8431Z" fill="#231F20"/>
<defs>
<linearGradient id="paint0_linear_816_2717" x1="25.3794" y1="68.9733" x2="66.8894" y2="68.9733" gradientUnits="userSpaceOnUse">
<stop stop-color="#1C5499"/>
<stop offset="0.671" stop-color="#183B69"/>
<stop offset="1" stop-color="#183B69"/>
</linearGradient>
<linearGradient id="paint1_linear_816_2717" x1="19.1837" y1="53.3753" x2="56.7657" y2="53.3753" gradientUnits="userSpaceOnUse">
<stop stop-color="#1C5499"/>
<stop offset="0.722" stop-color="#103A6A"/>
<stop offset="1" stop-color="#103A6A"/>
</linearGradient>
<linearGradient id="paint2_linear_816_2717" x1="109.597" y1="36.8816" x2="70.0006" y2="36.8816" gradientUnits="userSpaceOnUse">
<stop stop-color="#1C5499"/>
<stop offset="0.671" stop-color="#183B69"/>
<stop offset="1" stop-color="#183B69"/>
</linearGradient>
<linearGradient id="paint3_linear_816_2717" x1="37.7587" y1="91.3689" x2="77.8405" y2="65.2612" gradientUnits="userSpaceOnUse">
<stop stop-color="#231F20"/>
<stop offset="0.502" stop-color="#231F20"/>
<stop offset="1" stop-color="#8A8888"/>
</linearGradient>
</defs>
</svg>
