<svg width="1000" height="347" viewBox="0 0 1000 347" fill="none" xmlns="http://www.w3.org/2000/svg">
<path d="M63.2616 94.1544C71.2954 89.2375 79.5707 84.7443 87.9792 80.5103C98.0827 75.4883 108.4 70.9041 118.885 66.7332C130.417 62.184 142.118 58.0095 154.06 54.6475C149.99 52.3117 145.634 50.5291 141.256 48.8726C130.41 44.8697 118.99 42.3553 107.444 41.6654C95.5402 40.8389 83.5001 42.1732 72.0413 45.4896C62.8308 48.1897 54.0372 52.2416 45.9229 57.3581C38.5825 61.9704 31.8445 67.5176 25.9646 73.8809C16.6211 84.1069 9.4068 96.4447 5.58604 109.77L5.67009 110.208L5.40043 110.236C1.1034 123.344 -0.185367 137.373 0.826731 151.101C5.44246 144.255 10.4854 137.692 16.0993 131.626C24.0665 123.05 32.9337 115.345 42.2842 108.31C49.0397 103.253 56.0649 98.5565 63.2616 94.1544Z" fill="white"/>
<path d="M195.107 102.139C191.364 95.0088 187.778 87.8015 184.076 80.6538C178.108 82.629 172.148 84.6357 166.222 86.7369C160.458 88.7681 154.725 90.8728 149.017 93.0406C143.238 95.2329 137.491 97.5198 131.772 99.8662C122.019 103.908 112.315 108.11 102.842 112.782L102.803 112.708C96.2755 115.93 89.7827 119.208 83.4159 122.738C74.0934 127.897 65.0056 133.504 56.4395 139.849C46.7283 147.158 37.3673 155.426 31.1371 165.999C26.3778 174.121 24.245 183.951 26.2377 193.242C28.5245 204.434 35.5882 213.992 43.7025 221.752C50.0237 227.741 57.1154 232.927 64.7149 237.186C64.5643 218.005 64.1931 179.64 64.1931 179.64H75.06L75.1055 173.234L84.4561 173.224L84.4351 127.603L102.338 127.645V176.642L115.817 173.308C115.817 173.308 115.835 149.774 115.824 138.011C123.262 130.842 132.602 126.083 141.879 121.751L141.848 121.677C147.549 119.124 153.289 116.662 159.12 114.41C165.105 112.12 171.115 109.865 177.215 107.889L177.103 107.805C183.109 105.942 189.066 103.911 195.107 102.139Z" fill="white"/>
<path d="M273.211 115.741C268.661 107.914 259.059 105.021 250.535 104.37C250.566 107.214 250.552 110.068 250.542 112.918C239.29 112.817 228.076 114.106 216.89 115.17C216.901 112.568 216.897 109.973 216.89 107.375C206.608 108.649 196.48 110.926 186.478 113.591L186.527 113.657C163.508 120.066 141.386 129.812 121.105 142.444C121.193 146.755 121.799 155.353 121.799 155.353C121.799 155.353 126.6 153.444 127.115 153.245C128.964 152.523 130.816 151.812 132.676 151.112C136.388 149.708 140.114 148.338 143.841 146.98C151.132 144.325 158.402 141.614 165.701 138.981C180.22 133.742 195.062 129.861 210.044 126.202C224.294 122.756 238.915 120.266 253.627 120.928L253.648 121.022C260.88 121.642 270.08 123.116 273.144 130.688C274.338 125.676 276.534 120.451 273.211 115.741Z" fill="white"/>
<path d="M253.652 128.814C234.537 128.026 215.703 132.863 197.135 136.796L197.167 136.88C194.736 137.384 192.334 138.007 189.924 138.596L189.945 138.652C177.545 141.656 165.34 145.449 153.265 149.557L153.296 149.606C150.246 150.608 147.255 151.781 144.24 152.867L144.261 152.923C136.605 155.784 129.097 159.069 121.792 162.742C121.809 167.974 121.774 173.207 121.809 178.442C103.346 187.222 86.004 198.625 71.2778 212.864C71.2323 221.374 71.2778 229.88 71.2568 238.394C115.6 235.487 162.041 241.346 201.436 262.929L201.453 263.024C208.051 266.768 214.351 271.033 220.242 275.817C224.451 246.291 233.354 217.259 247.222 190.822C198.319 199.405 149.073 208.739 100.779 216.895C151.286 203.948 201.621 190.311 252.415 178.519C255.907 169.379 259.227 160.172 262.967 151.133C264.28 147.852 265.601 144.574 267.229 141.436C271.586 132.831 260.365 128.982 253.652 128.814Z" fill="white"/>
<path d="M105.422 182.223C101.937 182.173 98.4496 182.212 94.9689 182.202C94.9796 166.168 94.9689 150.138 94.976 134.104C93.685 134.179 92.4012 134.257 91.1102 134.336C91.1387 150.127 91.0995 165.919 91.1316 181.715C87.494 181.722 83.8528 181.722 80.2187 181.715C80.2116 183.913 80.2116 186.111 80.2259 188.309C77.2444 188.316 74.2666 188.302 71.2852 188.316C71.3066 194.675 71.2923 201.038 71.2923 207.398C82.4477 198.719 93.5709 189.948 105.422 182.223Z" fill="white"/>
<path d="M342.178 273.112C339.643 271.473 341.209 267.696 339.166 265.728C335.695 264.023 330.718 267.038 331.386 271.068C331.863 274.395 335.35 275.991 338.268 276.66C346.837 278.551 355.57 274.242 361.22 267.932C366.389 262.203 370.063 255.081 371.552 247.5C372.445 241.815 372.253 235.219 368.212 230.697C364.768 226.903 359.123 226.366 354.366 227.32C346.678 229.046 340.218 235.126 337.672 242.538C336.166 246.655 336.642 251.639 339.643 254.988C344.308 260.169 352.822 261.117 358.625 257.313C357.087 262.044 355.422 267.027 351.721 270.547C349.246 272.888 345.485 274.335 342.178 273.112ZM353.982 256.288C351.436 257.559 348.053 256.172 347.571 253.272C346.618 248.179 347.954 242.96 349.564 238.141C350.686 235.176 352.186 232.04 355.044 230.422C357.141 229.14 360.437 229.54 361.396 232.051C363.016 236.157 362.053 240.735 361.204 244.917C360.065 249.232 358.384 254.319 353.982 256.288Z" fill="white"/>
<path d="M412.959 250.657C414.492 245.015 414.881 238.616 412.144 233.271C410.754 230.447 408.105 228.364 405.1 227.492C392.254 224.076 377.892 236.193 379.173 249.429C380.749 258.908 393.338 262.341 400.765 257.357C399.243 261.984 397.618 266.836 394.071 270.345C391.603 272.774 387.87 274.299 384.46 273.186C381.537 271.574 383.699 266.99 380.765 265.444C377.624 264.55 373.688 266.666 373.513 270.126C373.245 273.048 375.839 275.159 378.341 276.037C385.106 278.509 392.796 276.47 398.455 272.308C405.598 267.056 410.469 259.1 412.959 250.657ZM397.722 255.427C395.401 257.351 391.104 257.291 389.977 254.072C388.773 250.01 389.659 245.667 390.617 241.637C391.887 237.185 393.584 231.768 398.307 229.948C400.36 229.23 402.927 230.085 403.638 232.273C405.072 236.231 404.219 240.552 403.441 244.56C402.456 248.524 401.044 252.79 397.722 255.427Z" fill="white"/>
<path d="M427.105 273.264C424.389 271.788 425.933 267.93 424.059 265.9C420.668 263.897 415.623 267.053 416.212 271.14C416.682 274.038 419.458 275.634 421.985 276.43C429.012 278.362 436.638 276.013 442.136 271.354C449.136 265.472 453.867 256.973 455.795 248.007C456.702 242.75 456.691 236.895 453.78 232.264C451.69 228.818 447.677 226.963 443.783 226.936C435.579 226.47 427.91 231.819 424.027 238.931C421.553 243.266 420.554 249.06 423.325 253.51C427.413 259.996 436.924 261.456 443.141 257.335C441.666 261.856 440.127 266.581 436.8 270.087C434.37 272.682 430.594 274.328 427.105 273.264ZM440.705 254.964C438.577 257.104 434.175 257.686 432.69 254.52C431.145 250.64 432.117 246.289 432.944 242.349C434.191 237.663 435.806 231.924 440.672 229.954C442.552 229.301 444.961 229.883 445.787 231.885C447.245 235.167 446.684 238.909 446.187 242.355C445.339 246.871 444.075 251.683 440.705 254.964Z" fill="white"/>
<path d="M325.249 252.134C322.021 245.869 313.703 243.694 307.557 246.763C308.977 243.217 310.344 239.649 311.694 236.092C315.254 236.273 318.88 236.3 322.419 235.708C327.59 234.338 331.706 230.677 335.843 227.454C334.069 227.427 332.299 227.35 330.525 227.498C323.741 230.644 316.065 229.082 308.89 228.791C305.869 236.267 302.886 243.77 299.826 251.241C299.363 252.446 298.759 253.674 298.95 255.017C300.273 256.135 301.9 255.313 303.289 254.781C305.929 253.86 306.68 250.638 309.217 249.591C311.171 248.292 314.138 248.95 315.096 251.175C316.153 253.669 315.701 256.513 315.216 259.1C314.062 263.885 311.852 268.664 308.03 271.859C305.657 273.728 301.922 274.994 299.298 272.95C297.311 270.22 300.708 266.055 297.85 263.742C293.615 261.879 288.421 266.592 289.924 271.053C291.513 275.301 296.277 277.23 300.463 277.586C309.876 278.009 319.386 272.829 324.112 264.603C326.197 260.881 327.498 256.086 325.249 252.134Z" fill="white"/>
<path d="M556.852 248.146C556.617 251.473 556.491 255.176 554.148 257.809C552.695 259.443 550.4 259.699 548.368 260.022C540.863 260.764 533.325 260.835 525.797 260.677C521.34 260.541 516.533 260.005 513.086 256.859C510.71 252.292 510.497 247.043 510.338 242.006C509.983 236.702 510.355 231.392 510.491 226.083C510.524 222.898 511.666 219.883 513.097 217.086L512.846 216.851L513.588 216.737C515.282 215.726 516.713 214.109 518.811 213.989C526.562 213.137 534.406 213.514 542.201 213.41C546.56 213.317 551.318 213.661 554.765 216.676C555.612 218.971 555.928 221.407 556.136 223.843C562.838 223.92 569.536 223.871 576.238 223.876C576.222 221.391 576.189 218.911 576.151 216.442C575.703 210.034 574.883 202.922 570.027 198.208C566.739 194.739 561.921 193.433 557.299 193.029C545.402 191.942 533.434 191.888 521.498 192.243C514.686 192.794 507.459 192.882 501.303 196.208C494.213 200.207 491.061 208.472 490.192 216.179C489.417 225.974 489.198 235.817 489.586 245.633L489.75 244.918C489.57 249.544 490.089 254.166 490.564 258.765C491.296 264.315 492.47 270.182 496.245 274.541C499.648 278.671 504.914 280.724 510.114 281.369C516.746 282.128 523.437 282.516 530.113 282.423C540.317 282.347 550.602 282.691 560.714 281.101C566.629 280.206 572.398 276.6 574.648 270.876C577.418 263.649 577.025 255.739 577.134 248.13C570.382 248.146 563.62 248.141 556.852 248.146Z" fill="white"/>
<path d="M689.809 281.642C685.947 272.689 682.151 263.709 678.404 254.712L678.311 254.701C676.808 250.877 675.131 247.119 673.553 243.328C672.094 239.838 670.598 236.38 669.139 232.889C666.686 227.012 664.086 221.183 661.732 215.256L661.595 215.273C658.591 207.691 655.242 200.256 652.134 192.718C642.75 192.691 633.371 192.707 623.991 192.707C620.555 200.606 617.092 208.499 613.656 216.409C611.291 221.926 608.849 227.41 606.473 232.928C605.031 236.227 603.589 239.532 602.163 242.842C600.464 246.737 598.755 250.632 597.067 254.532C593.112 263.561 589.228 272.624 585.229 281.637C593.172 281.653 601.12 281.626 609.051 281.648C611.247 276.387 613.411 271.116 615.59 265.845C630.426 265.861 645.252 265.785 660.077 265.877C662.251 271.154 664.6 276.349 666.785 281.62C674.454 281.67 682.134 281.642 689.809 281.642ZM637.817 212.039C638.505 213.705 639.199 215.382 639.909 217.048C642.274 222.538 644.563 228.05 646.912 233.539C648.338 236.904 649.742 240.286 651.195 243.65C651.697 244.825 652.222 246.016 652.741 247.207C642.886 247.223 633.043 247.223 623.199 247.207C623.707 245.983 624.226 244.77 624.745 243.552C626.198 240.083 627.613 236.593 629.055 233.113C631.333 227.64 633.562 222.139 635.84 216.666C636.479 215.109 637.145 213.563 637.817 212.039Z" fill="white"/>
<path d="M824.165 193.067C818.899 193.663 813.339 194.881 809.417 198.721C804.462 203.239 802.922 210.127 802.217 216.534C801.846 220.773 801.359 225.029 801.501 229.295C801.245 236.057 801.321 242.836 801.49 249.594C802.037 258.869 802.179 269.696 809.657 276.387C816.054 282.199 825.181 281.817 833.239 282.309C845.032 282.527 856.837 282.401 868.63 282.352C874.754 282.281 881.522 280.823 885.504 275.754C890.393 269.597 890.497 261.256 890.666 253.767C891.108 246.365 890.786 238.947 890.906 231.54C875.245 231.529 859.573 231.529 843.907 231.54C843.923 237.09 843.918 242.634 843.89 248.19C852.723 248.31 861.573 247.982 870.4 248.364C870.58 251.462 870.624 254.777 869.237 257.645C867.68 260.661 863.976 261.436 860.895 261.611C853.685 261.868 846.469 261.671 839.258 261.742C834.883 261.753 830.07 261.589 826.481 258.754C824.029 256.864 823.237 253.685 822.931 250.757C822.199 244.825 822.352 238.843 822.385 232.884C822.538 227.574 822.237 222.062 824.438 217.081C826.159 214.988 828.557 213.421 831.338 213.35C841.432 212.771 851.56 212.945 861.682 212.967C864.08 212.831 866.216 213.967 868.139 215.283C869.521 217.561 870.193 220.134 870.411 222.778C877.25 222.805 884.089 222.794 890.934 222.789C890.841 218.67 890.797 214.535 890.251 210.449C889.655 204.839 887.072 199.093 882.161 196.023C876.376 192.264 869.209 192.603 862.605 192.204C849.79 192.03 836.937 191.729 824.165 193.067Z" fill="white"/>
<path d="M999.649 219.151C999.332 214.448 998.545 209.772 996.912 205.342C995.41 202.261 993.525 199.289 990.783 197.181C984.611 192.128 976.226 192.363 968.704 192.035C954.966 191.838 941.151 191.248 927.473 192.865C919.934 193.728 912.647 198.038 909.463 205.118C906.977 211.465 906.218 218.31 906.06 225.083C906.087 230.6 905.907 236.129 906.043 241.646C906.092 247.381 906.147 253.128 906.753 258.836C907.704 265.337 909.474 272.334 914.608 276.841C919.831 281.14 926.915 281.686 933.378 282.418C945.466 282.839 957.571 282.729 969.66 282.418C977.171 282.03 985.556 281.659 991.34 276.169C998.819 269.286 999.463 258.339 999.731 248.829L999.851 248.84C999.884 242.694 999.84 236.555 999.867 230.404C999.889 226.646 999.796 222.898 999.649 219.151ZM973.303 258.967C969.124 260.541 964.558 260.349 960.177 260.704C952.649 260.836 945.073 261.12 937.578 260.273C934.781 260.038 932.198 258.738 930.188 256.837C927.396 252.467 927.664 247.125 927.374 242.165C927.118 236.473 927.183 230.759 927.702 225.083C928.281 221.309 929.412 216.562 933.498 215.196C939.894 213.372 946.646 213.694 953.228 213.53C959.609 213.661 966.136 213.088 972.38 214.705C974.926 215.284 976.526 217.496 977.662 219.686C978.662 222.691 978.973 225.87 979.061 229.027C979.432 235.544 979.175 242.094 978.826 248.61C978.318 252.505 977.121 257.066 973.303 258.967Z" fill="white"/>
<path d="M754.699 259.235C756.911 259.306 759.456 259.262 761.155 260.928C763.28 263.086 763.728 266.298 763.821 269.199C763.898 273.345 763.821 277.496 763.832 281.642C770.955 281.653 778.073 281.653 785.196 281.642C784.71 272.438 786.578 262.687 782.82 253.969C780.236 248.048 772.862 248.212 767.415 247.944C771.414 246.753 775.713 246.185 779.28 243.874C782.415 241.76 783.754 238.046 784.874 234.61C786.185 228.65 786.212 222.549 786.032 216.485C785.507 209.335 784.437 200.988 778.095 196.514C773.08 192.915 766.618 192.915 760.697 192.734C740.234 192.685 719.777 192.751 699.314 192.702C699.167 201.114 699.331 209.532 699.221 217.938C699.281 223.985 699.281 230.027 699.221 236.079C699.281 240.662 699.27 245.251 699.232 249.845C699.303 260.442 699.243 271.045 699.26 281.648C706.246 281.659 713.238 281.659 720.236 281.648C720.219 274.18 720.252 266.708 720.208 259.24C731.701 259.235 743.195 259.224 754.699 259.235ZM720.219 214.584C731.122 214.557 742.031 214.584 752.945 214.557C756.376 214.557 760.019 214.737 762.985 216.687C765.542 222.248 765.749 229.071 763.433 234.752C760.91 237.369 757.069 237.281 753.721 237.401C742.555 237.39 731.401 237.401 720.247 237.39C720.203 232.867 720.274 228.339 720.176 223.827C720.203 220.741 720.236 217.66 720.219 214.584Z" fill="white"/>
<path d="M185.788 59.5854L185.48 59.7255C153.583 72.1754 121.995 85.5603 91.5826 101.334C76.6078 109.101 61.8676 117.387 47.9154 126.888C34.5865 136.193 21.9966 147.652 15.0169 162.616C10.1771 172.902 9.13346 184.977 12.604 195.837C16.7785 209.404 26.2831 220.575 36.7333 229.849C42.4731 234.92 48.6963 239.41 55.0561 243.672C55.5814 244.015 56.1032 244.397 56.639 244.757C56.8491 244.901 57.0663 245.041 57.2799 245.174C57.3919 245.248 57.5005 245.314 57.6126 245.374L57.8998 245.535C58.6702 245.951 59.4897 246.249 60.4002 246.305C60.5718 246.333 60.7329 246.382 60.887 246.449C66.4343 250.185 71.8135 253.456 72.7625 254.027L72.8746 254.094C72.8851 254.101 72.8956 254.104 72.9026 254.111C64.6552 250.469 56.8211 245.923 49.078 241.325C40.0392 235.813 31.291 229.772 23.2923 222.824C17.8011 217.973 12.59 212.717 8.47857 206.627C5.74346 202.554 3.47411 198.075 2.45151 193.245C0.133141 181.079 2.27291 168.213 8.09684 157.307C15.5107 143.278 27.2286 132.113 39.5909 122.43C55.4413 110.183 72.8956 100.188 90.7141 91.118C114.146 79.2881 138.409 69.2021 162.941 59.8901C164.534 59.2422 166.303 59.4979 167.984 59.4593C173.913 59.5469 179.859 59.2982 185.788 59.5854Z" fill="white"/>
<path d="M16.9827 179.382C15.4219 190.02 18.5471 200.847 23.9541 209.976C31.1109 222.099 41.4944 231.945 52.5533 240.479C54.9366 242.377 57.9078 244.474 60.8336 246.439C66.377 250.175 71.7525 253.445 72.7009 254.016L57.8483 245.525L57.5614 245.364C57.4494 245.304 57.3409 245.238 57.2289 245.164C57.0119 245.031 56.7984 244.894 56.5885 244.747C56.053 244.387 55.5316 244.005 55.0066 243.662C48.6512 239.4 42.4323 234.911 36.6963 229.841C26.2533 220.569 16.7552 209.398 12.5836 195.833C9.11547 184.975 10.1619 172.901 14.9949 162.617C21.9698 147.654 34.5511 136.197 47.8708 126.893C61.81 117.393 76.5436 109.108 91.5082 101.342C121.899 85.574 153.466 72.1873 185.341 59.739C185.352 61.0241 185.359 62.3057 185.369 63.5908C192.351 63.6223 199.336 63.5138 206.325 63.6468C174.006 74.2532 142.064 86.1412 111.162 100.393C92.6315 109 74.3983 118.395 57.3689 129.722C48.5567 135.672 39.937 142.055 32.5982 149.794C24.8605 157.977 18.5156 168.051 16.9827 179.382Z" fill="white"/>
<path d="M367.416 6.56822C364.451 3.47691 360.155 2.17402 356.161 0.986395C353.691 0.217933 351.133 0.0188337 348.561 0.00835467C348.557 0.00835467 348.557 0.00835467 348.554 0.00835467L348.557 0.00486092C346.332 -0.0475342 343.841 0.329711 341.542 0.843183L341.525 0.846674L341.521 0.850168C337.547 1.74088 334.152 3.0333 333.683 3.21493C333.665 3.22192 333.648 3.22541 333.627 3.2324C333.62 3.23938 333.62 3.23939 333.62 3.23939C328.689 4.83569 323.745 6.36912 318.864 8.08069C318.864 8.08069 296.946 15.2693 285.996 18.8846L286.017 18.9439C281.641 20.3342 277.289 21.8047 272.933 23.2683C269.927 24.2638 266.931 25.2768 263.928 26.2758C262.334 26.8556 260.648 26.2827 259.033 26.2024C254.684 25.7658 250.336 25.3536 245.984 25.0253C241.327 24.5572 231.999 23.8167 231.999 23.8167C231.999 23.8167 227.104 19.5168 224.539 17.5118C221.82 15.4195 219.329 12.7893 215.972 11.7483C214.826 11.2663 213.666 11.8147 212.597 12.2129C214.675 14.5812 217.09 16.6316 219.339 18.8426C222.885 22.0667 230.195 28.0083 230.195 28.0083C230.195 28.0083 238.552 28.7209 242.725 28.9689C244.232 28.9689 245.129 30.7084 244.701 32.0427C244.463 33.2723 243.177 33.8102 242.22 34.3935C237.585 36.8177 232.798 38.9589 227.935 40.8695L227.963 40.9254C225.867 41.6275 223.842 42.616 221.631 42.892C218.996 41.8476 216.907 39.8426 214.553 38.3266L214.532 38.2149C208.981 34.1141 203.725 29.6011 197.916 25.8566C193.02 22.8037 186.85 24.0891 181.727 25.8566C186.24 32.9684 196.255 48.6974 196.255 48.6974C196.255 48.6974 196.181 54.8276 196.181 57.6639C204.317 57.8036 212.464 57.7477 220.597 57.2762C225.012 57.0456 229.42 56.6789 233.8 56.0886C240.963 54.8835 247.953 52.8575 254.898 50.7722C258.752 49.5846 262.593 48.3551 266.423 47.0836C270.866 45.6165 275.284 44.0691 279.71 42.5567C281.942 41.8231 284.146 40.9988 286.403 40.3386C288.807 39.5666 291.333 40.2548 293.747 40.6215C299.613 41.7463 305.384 43.4823 311.362 43.9504C313.328 44.1495 315.738 43.7722 316.646 41.7638C318.342 38.1205 317.855 33.901 317.277 30.0482C320.034 28.9828 322.859 28.0991 325.651 27.1106C333.16 24.4699 340.624 21.672 348.007 18.689C354.083 16.1321 360.275 13.7044 365.881 10.2009C367.09 9.46392 368.895 7.9759 367.416 6.56822Z" fill="white"/>
<path d="M977.952 315.647C977.722 315.33 977.378 315.122 976.99 315.068C976.919 315.057 976.843 315.051 976.766 315.051C976.422 315.051 976.083 315.177 975.816 315.401C975.548 315.63 975.373 315.947 975.319 316.291C973.991 324.927 966.393 331.439 957.642 331.439C947.782 331.439 939.758 323.414 939.758 313.554C939.758 312.713 939.818 311.867 939.932 311.042C940.047 310.244 939.485 309.501 938.687 309.387C938.616 309.376 938.545 309.37 938.474 309.37C938.124 309.37 937.786 309.496 937.523 309.725C937.256 309.955 937.081 310.277 937.032 310.632C936.895 311.593 936.83 312.577 936.83 313.549C936.83 325.026 946.165 334.361 957.642 334.361C967.83 334.361 976.673 326.779 978.214 316.728C978.279 316.351 978.181 315.963 977.952 315.647Z" fill="white"/>
<path d="M945.499 307.994C945.684 308.075 945.887 308.119 946.089 308.119C946.668 308.119 947.198 307.775 947.427 307.245C948.197 305.497 949.568 304.454 951.098 304.454C951.475 304.454 951.841 304.519 952.185 304.645C953.277 305.049 954.239 306.174 953.654 308.103C953.419 308.873 953.856 309.692 954.632 309.927C954.769 309.971 954.916 309.993 955.058 309.993C955.364 309.993 955.675 309.894 955.921 309.709C956.178 309.518 956.364 309.261 956.457 308.949C956.959 307.294 956.839 305.721 956.112 304.394C955.796 303.809 955.369 303.29 954.845 302.853C954.353 302.438 953.796 302.116 953.201 301.892C952.534 301.646 951.824 301.52 951.098 301.52C949.841 301.52 948.612 301.897 947.542 302.607C946.968 302.99 946.444 303.465 945.985 304.017C945.499 304.607 945.078 305.29 944.745 306.049C944.423 306.803 944.761 307.666 945.499 307.994Z" fill="white"/>
<path d="M960.613 310.299C960.799 310.381 961.001 310.424 961.203 310.424C961.782 310.424 962.312 310.08 962.547 309.55C963.662 307.032 965.481 306.764 966.212 306.764C966.589 306.764 966.961 306.83 967.305 306.956C968.398 307.36 969.359 308.485 968.774 310.413C968.539 311.184 968.977 312.003 969.752 312.238C969.889 312.282 970.036 312.303 970.178 312.303C970.484 312.303 970.79 312.205 971.041 312.019C971.298 311.828 971.484 311.571 971.577 311.26C972.079 309.605 971.959 308.032 971.233 306.704C970.916 306.12 970.49 305.601 969.965 305.164C969.474 304.749 968.916 304.426 968.321 304.202C967.655 303.957 966.944 303.831 966.218 303.831C964.962 303.831 963.733 304.208 962.662 304.918C962.088 305.3 961.564 305.776 961.105 306.327C960.619 306.917 960.198 307.6 959.865 308.359C959.543 309.102 959.876 309.971 960.613 310.299Z" fill="white"/>
<path d="M957.156 287.241C940.757 287.241 927.418 300.581 927.418 316.979C927.418 333.378 940.757 346.717 957.156 346.717C973.554 346.717 986.894 333.378 986.894 316.979C986.894 300.581 973.554 287.241 957.156 287.241ZM957.156 343.789C942.374 343.789 930.346 331.761 930.346 316.979C930.346 302.198 942.374 290.169 957.156 290.169C971.937 290.169 983.966 302.198 983.966 316.979C983.966 331.761 971.937 343.789 957.156 343.789Z" fill="white"/>
<path d="M316.31 305.574C316.348 301.52 316.495 297.462 316.304 293.403H314.316C314.316 293.993 313.824 294.463 313.24 294.441L312.027 294.392C289.663 291.486 277.324 314.434 289.308 332.558C293.056 337.699 299.043 341.085 305.395 341.621C305.942 341.752 306.548 341.785 307.182 341.774H307.187C309.552 341.856 311.776 341.877 313.671 341.768C314.327 341.73 314.878 342.249 314.878 342.904C315.354 342.893 315.829 342.872 316.315 342.861C316.32 338.922 316.353 334.989 316.326 331.051C311.218 331.542 305.117 333.525 300.441 330.302C286.981 318.443 299.414 297.609 316.31 305.574Z" fill="white"/>
<path d="M449.89 296.118C420.808 302.957 434.852 356.916 463.579 339.392C480.032 327.123 472.696 293.496 449.89 296.118ZM462.05 322.059C461.558 328.09 454.806 337.644 448.683 331.488C442.505 325.654 442.45 314.368 448.158 308.185C456.898 299.456 463.88 314.161 462.05 322.059Z" fill="white"/>
<path d="M357.918 341.462L344.862 298.008H346.375V296.927V296.386H331.851V297.467H331.856V298.008H333.02L319.473 341.391H318.883V342.872H331.79V341.391H330.179L333.052 332.455H345.261L347.79 341.462H346.976V342.877H348.38V342.883H358.224V342.877H359.218V341.501L357.918 341.462ZM335.024 323.884L339.247 312.336L342.994 323.884H335.024Z" fill="white"/>
<path d="M714.538 341.462L701.482 298.008H702.996V296.927V296.386H688.471V297.467H688.476V298.008H689.64L676.093 341.391H675.503V342.872H688.411V341.391H686.799L689.672 332.455H701.881L704.41 341.462H703.596V342.877H705V342.883H714.844V342.877H715.838V341.501L714.538 341.462ZM691.644 323.884L695.867 312.336L699.614 323.884H691.644Z" fill="white"/>
<path d="M386.754 329.505C386.765 329.194 386.803 328.593 386.814 328.287C395.5 322.491 396.827 308.731 389.84 301.138C383.64 294.588 374.185 295.779 365.691 296.009H361.85V296.014V296.697V297.669H362.899C363.167 310.534 363.145 325.173 362.932 338.305C362.927 338.84 362.921 340.643 362.91 341.561H361.566V342.872H374.502V341.561H373.273C373.229 341.435 373.185 341.304 373.141 341.244C373.131 340.736 373.12 338.818 373.12 338.305C373.109 336.175 373.141 334.055 373.07 331.925C373.278 331.592 373.912 330.554 373.912 330.554L375.938 330.499L381.772 341.561H381.679V342.872H383.067H395.833H395.915V341.561H394.986C391.938 337.72 389.431 333.684 386.754 329.505ZM381.936 318.869C380.51 320.295 378.544 321.185 376.375 321.213C376.282 321.218 376.19 321.218 376.097 321.218H373.131V305.18H376.266C380.691 305.18 384.285 308.775 384.285 313.199C384.29 315.417 383.389 317.422 381.936 318.869Z" fill="white"/>
<path d="M431.323 321.994C431.033 320.071 429.76 319.361 428.149 319.143H424.396H421.621C421.583 319.143 421.545 319.137 421.507 319.132H419.868V318.236C419.868 318.23 419.873 318.23 419.873 318.225V317.766H418.142V320.12C418.12 321.928 418.131 323.731 418.142 325.539V329.926H419.873V329.347C420.398 329.325 420.917 329.308 421.436 329.286C421.386 330.45 421.348 331.608 421.283 332.772C420.971 332.985 420.37 333.416 420.059 333.629C399.82 330.881 407.02 298.811 427.838 306.196V307.212H429.564V294.501H427.838V294.878H427.843V295.397H426.559C384.826 293.168 390.725 350.973 430.634 342.342C432.41 335.858 431.093 328.702 431.323 321.994Z" fill="white"/>
<path d="M544.457 295.97H542.365V297.702H543.927L535.417 325.725H534.106L530.369 313.09H531.445V311.364H518.838V313.09H519.39L516.178 325.435H514.719L506.624 297.702H507.886V295.97H506.121H495.917H494.71V297.702H496.436L509.431 341.074H508.208V342.806H521.739V341.074H521.438L524.486 329.953L525.797 329.658L528.851 341.074H528.031V342.806H538.962L540.082 342.877L540.103 342.806H541.933V341.074H540.628L553.842 297.702H555.541V295.97H554.366H544.457Z" fill="white"/>
<path d="M559.474 296.025H558.61V297.751H559.474V341.129H558.283V342.855H569.82V341.129H568.995V297.751H569.841V296.025H568.995H559.474Z" fill="white"/>
<path d="M742.73 301.903C739.633 305.464 739.857 311.074 742.577 314.778C747.28 321.857 756.741 322.589 762.963 327.626C766.159 331.756 759.587 334.006 755.097 333.356C753.961 333.192 753.021 332.504 752.481 331.559H752.595V329.827H751.978H747.258H738.917V331.559H739.824C744.811 342.626 759.495 346.493 769.546 339.321C779.138 331.652 773.266 320.312 763.242 316.832C760.429 314.756 749.176 312.413 751.257 307.846C753.218 305.645 756.053 305.159 758.877 305.246C760.265 305.295 761.521 305.967 762.357 307.016H762.188V308.747H775.86V307.016H774.964C770.485 294.381 751.273 291.89 742.73 301.903Z" fill="white"/>
<path d="M606.998 295.839H605.282H578.904H577.189V295.233H575.462V305.994H577.189V305.437H578.904H579.871V305.442H586.803V305.437H597.383V305.442H586.803C586.278 317.646 588.043 330.308 585.989 342.282C589.96 343.74 594.461 342.697 598.634 342.948C598.755 341.927 597.952 341.282 597.444 340.545C597.411 328.844 597.214 317.149 597.455 305.459C597.722 305.453 597.99 305.448 598.263 305.448H604.315H605.282C605.206 305.448 605.129 305.448 605.053 305.442H605.282H606.998V306H608.724V295.238H606.998V295.839Z" fill="white"/>
<path d="M639.013 296.025H638.15V297.751H639.013V314.696H624.882V297.751H625.728V296.025H624.882H615.366H614.503V297.751H615.366V341.129H614.17V342.855H625.707V341.129H624.882V324.277H639.013V341.129H637.817V342.855H649.354V341.129H648.529V297.751H649.376V296.025H648.529H639.013Z" fill="white"/>
<path d="M832.829 296.025H831.966V297.751H832.829V341.129H831.638V342.855H843.175V341.129H842.35V297.751H843.197V296.025H842.35H832.829Z" fill="white"/>
<path d="M912.145 306.824V295.594H910.419V296.462H893.774V296.457H882.724V298.177H883.417V341.561H882.532V343.287H883.581V343.298H910.271V344.144H911.943V332.913H910.271V333.782H892.928V325.299H901.586V326.145H903.312V314.914H901.586V315.783H892.928V305.978H910.419V306.824H912.145Z" fill="white"/>
<path d="M815.027 296.025H814.164L802.397 307.081L790.249 296.025H789.402H779.881H779.018V297.751H779.881V341.129H778.69V342.855H790.221V341.129H789.402V309.212L802.403 320.24L814.655 310.217L815.027 309.643V341.129H813.836V342.855H825.367V341.129H824.542V297.751H825.389V296.025H824.542H815.027Z" fill="white"/>
<path d="M877.337 333.351H859.759V297.751H860.611V296.025H849.375V297.751H850.243V339.354C850.243 341.298 851.817 342.872 853.761 342.872H877.337V343.718H879.064V332.493H877.337V333.351Z" fill="white"/>
</svg>
